<svg xmlns="http://www.w3.org/2000/svg" xmlns:xlink="http://www.w3.org/1999/xlink" xmlns:svgjs="http://svgjs.dev/svgjs" version="1.1" viewBox="211.35 -0.5 740.29 624.5"><g transform="matrix(1,0,0,1,-0.6060606060606233,0.2522267206477409)"><svg xmlns="http://www.w3.org/2000/svg" xmlns:xlink="http://www.w3.org/1999/xlink" viewBox="0 0 396 247" data-background-color="#111111" preserveAspectRatio="xMidYMid meet" height="623" width="1000"><defs/><g id="tight-bounds" transform="matrix(1,0,0,1,0.2400000000000091,-0.09999999999999432)"><svg viewBox="0 0 395.52 247.2" height="247.2" width="395.52"><g><svg/></g><g><svg viewBox="0 0 395.52 247.2" height="247.2" width="395.52"><g transform="matrix(1,0,0,1,83.55776044880787,47.215199999999996)"><svg viewBox="0 0 228.40447910238424 152.7696" height="152.7696" width="228.40447910238424"><g><svg viewBox="0 0 228.40447910238424 152.7696" height="152.7696" width="228.40447910238424"><g><svg viewBox="0 0 228.40447910238424 152.7696" height="152.7696" width="228.40447910238424"><g><svg viewBox="0 0 228.40447910238424 152.7696" height="152.7696" width="228.40447910238424"><g><svg viewBox="0 0 228.40447910238424 152.7696" height="152.7696" width="228.40447910238424"><g><svg viewBox="0 0 228.40447910238424 152.7696" height="152.7696" width="228.40447910238424"><g transform="matrix(1,0,0,1,0,0)"><svg width="228.40447910238424" viewBox="3.85 -35.3 53.3 35.65" height="152.7696" data-palette-color="#ffffff"><path d="M21.3-17.95Q23.2-17.65 24.78-16.4 26.35-15.15 27.28-13.3 28.2-11.45 28.2-9.35L28.2-9.35Q28.2-6.7 26.85-4.58 25.5-2.45 22.93-1.23 20.35 0 16.85 0L16.85 0 3.85 0 3.85-34.85 16.35-34.85Q19.9-34.85 22.4-33.68 24.9-32.5 26.15-30.5 27.4-28.5 27.4-26L27.4-26Q27.4-22.9 25.73-20.88 24.05-18.85 21.3-17.95L21.3-17.95ZM8.4-31.1L8.4-19.8 16.05-19.8Q19.25-19.8 21-21.3 22.75-22.8 22.75-25.45L22.75-25.45Q22.75-28.1 21-29.6 19.25-31.1 15.95-31.1L15.95-31.1 8.4-31.1ZM16.45-3.75Q19.85-3.75 21.75-5.35 23.65-6.95 23.65-9.8L23.65-9.8Q23.65-12.7 21.65-14.38 19.65-16.05 16.3-16.05L16.3-16.05 8.4-16.05 8.4-3.75 16.45-3.75ZM45.55 0.35Q42.1 0.35 39.37-0.88 36.65-2.1 35.1-4.28 33.55-6.45 33.5-9.3L33.5-9.3 38.35-9.3Q38.6-6.85 40.37-5.18 42.15-3.5 45.55-3.5L45.55-3.5Q48.8-3.5 50.67-5.13 52.55-6.75 52.55-9.3L52.55-9.3Q52.55-11.3 51.45-12.55 50.35-13.8 48.7-14.45 47.05-15.1 44.25-15.85L44.25-15.85Q40.8-16.75 38.72-17.65 36.65-18.55 35.17-20.48 33.7-22.4 33.7-25.65L33.7-25.65Q33.7-28.5 35.15-30.7 36.6-32.9 39.22-34.1 41.85-35.3 45.25-35.3L45.25-35.3Q50.15-35.3 53.27-32.85 56.4-30.4 56.8-26.35L56.8-26.35 51.8-26.35Q51.55-28.35 49.7-29.88 47.85-31.4 44.8-31.4L44.8-31.4Q41.95-31.4 40.15-29.93 38.35-28.45 38.35-25.8L38.35-25.8Q38.35-23.9 39.42-22.7 40.5-21.5 42.07-20.88 43.65-20.25 46.5-19.45L46.5-19.45Q49.95-18.5 52.05-17.57 54.15-16.65 55.65-14.73 57.15-12.8 57.15-9.5L57.15-9.5Q57.15-6.95 55.8-4.7 54.45-2.45 51.8-1.05 49.15 0.35 45.55 0.35L45.55 0.35Z" opacity="1" transform="matrix(1,0,0,1,0,0)" fill="#ffffff" class="undefined-text-0" data-fill-palette-color="primary" id="text-0"/></svg></g></svg></g></svg></g></svg></g></svg></g></svg></g></svg></g><path d="M129.661 41.215L129.661 0 376.861 0 376.861 247.2 129.661 247.2 129.661 205.985 143.438 205.985 143.438 233.423 363.084 233.423 363.084 13.777 143.438 13.777 143.438 41.215Z" fill="#ffffff" stroke="transparent" data-fill-palette-color="primary"/></svg></g></svg><rect width="395.52" height="247.2" fill="none" stroke="none" visibility="hidden"/></g></svg></g></svg>